<svg width="22" height="22" viewBox="0 0 22 22" fill="none" xmlns="http://www.w3.org/2000/svg">
<mask id="mask0_11_426" style="mask-type:luminance" maskUnits="userSpaceOnUse" x="2" y="0" width="18" height="22">
<path fill-rule="evenodd" clip-rule="evenodd" d="M12.7166 20.0834C13.6381 19.3495 14.5594 18.5204 15.4216 17.6103C17.9361 14.9562 19.4612 12.1601 19.4612 9.30724C19.4612 4.63406 15.6728 0.845703 10.9996 0.845703C6.32645 0.845703 2.53809 4.63406 2.53809 9.30724C2.53809 12.1601 4.06319 14.9562 6.57766 17.6103C7.43985 18.5204 8.3611 19.3495 9.28263 20.0834C9.60567 20.3406 9.90625 20.568 10.177 20.7635C10.342 20.8826 10.4622 20.9659 10.5303 21.0113C10.8145 21.2008 11.1848 21.2008 11.469 21.0113C11.5371 20.9659 11.6573 20.8826 11.8223 20.7635C12.093 20.568 12.3936 20.3406 12.7166 20.0834ZM7.61501 9.30724C7.61501 11.1765 9.13035 12.6919 10.9996 12.6919C12.8689 12.6919 14.3842 11.1765 14.3842 9.30724C14.3842 7.43797 12.8689 5.92263 10.9996 5.92263C9.13035 5.92263 7.61501 7.43797 7.61501 9.30724Z" fill="white"/>
</mask>
<g mask="url(#mask0_11_426)">
<rect width="22" height="22" fill="#22242A"/>
</g>
</svg>
